# xmcd CD database file
#
# Track frame offsets:
#	187
#	5027
#	25097
#	46337
#	61460
#	85795
#	100602
#	122660
#	138082
#	162977
#	183280
#	199657
#
# Disc length: 2962 seconds
#
# Revision: 5
# Processed by: cddbd v1.5.2PL0 Copyright (c) Steve Scherf et al.
# Submitted via: CDex 1.51
#
DISCID=920b900c
DTITLE=Zinatra - The Great Escape
DYEAR=1990
DGENRE=Hard Rock
TTITLE0=The Great Escape
TTITLE1=Take It To The Top
TTITLE2=Two Sides Of Love
TTITLE3=There She Was
TTITLE4=Love Never Dies
TTITLE5=Unknown Skies
TTITLE6=Too Blind To See
TTITLE7=Candyman
TTITLE8=Hold On
TTITLE9=Only Your Heart
TTITLE10=Jekyll And Hyde
TTITLE11=The Roaring Silence
EXTD=YEAR: 1990
EXTT0=
EXTT1=
EXTT2=
EXTT3=
EXTT4=
EXTT5=
EXTT6=
EXTT7=
EXTT8=
EXTT9=
EXTT10=
EXTT11=
PLAYORDER=
